<svg viewBox="0 0 100 100" xmlns="http://www.w3.org/2000/svg">
<circle cx="50" cy="58" r="44.2" fill="#dc2626" opacity="0.14"/><circle cx="50" cy="58" r="48.1" fill="none" stroke="#dc2626" stroke-width="1.5" opacity="0.45"/>
<ellipse cx="50" cy="95" rx="28" ry="5" fill="#dc2626" opacity="0.2"/>
<path d="M-20.0 7.5 C-30.5 98.5 29.0 147.5 50 151.0 C71.0 147.5 130.5 98.5 120.0 7.5 Z" fill="#08080f" opacity="0.92" stroke="#dc2626" stroke-width="1.8"/><path d="M-6.0 13.5 C-13.0 102.5 37.4 137.0 50 142.25" fill="none" stroke="#dc2626" stroke-width="0.9" opacity="0.55"/><path d="M106.0 13.5 C113.0 102.5 62.6 137.0 50 142.25" fill="none" stroke="#dc2626" stroke-width="0.9" opacity="0.55"/>
<rect x="4.5" y="48" width="10" height="24" rx="4" fill="#c2ccdb" stroke="#10141f" stroke-width="2.0" stroke-linejoin="round" stroke-linecap="round"/><rect x="6.5" y="51" width="6" height="18" rx="2" fill="none" stroke="#dc2626" stroke-width="1.6" opacity="0.9"/><ellipse cx="9.5" cy="75" rx="4" ry="7" fill="#dc2626" opacity="0.55"/><ellipse cx="9.5" cy="73" rx="2" ry="4" fill="#ffffff" opacity="0.8"/>
<path d="M70 74 q18 0 16 -14 q-1 -8 -7 -6 q4 4 1 9 q-3 5 -12 5 z" fill="#1f2937" stroke="#10141f" stroke-width="2.4" stroke-linejoin="round" stroke-linecap="round"/>
<path d="M4.5 60 C4.5 7.5, 27.25 1.5, 50 1.5 C72.75 1.5, 95.5 7.5, 95.5 60 C95.5 98.5, 77.3 104.5, 50 104.5 C22.7 104.5, 4.5 98.5, 4.5 60 Z" fill="#e8edf5" stroke="#10141f" stroke-width="2.6999999999999997" stroke-linejoin="round" stroke-linecap="round"/><path d="M18.150000000000002 11.5 C36.35 3.5, 63.65 3.5, 81.85 11.5" fill="none" stroke="#ffffff" stroke-width="2" opacity="0.5"/><ellipse cx="50" cy="62" rx="23.66" ry="24.5" fill="none" stroke="#dc2626" stroke-width="2" opacity="0.85"/><path d="M50 5.5 L50 56 M24.974999999999998 60 q25.025000000000002 8 50.050000000000004 0" fill="none" stroke="#dc2626" stroke-width="1.4" opacity="0.7"/><circle cx="50" cy="62" r="4.5" fill="#dc2626" opacity="0.9"/><circle cx="50" cy="62" r="2" fill="#ffffff" opacity="0.85"/>
<ellipse cx="29.525" cy="102.5" rx="6.5" ry="4.2" fill="#c2ccdb" stroke="#10141f" stroke-width="2.4" stroke-linejoin="round" stroke-linecap="round"/><ellipse cx="70.475" cy="102.5" rx="6.5" ry="4.2" fill="#c2ccdb" stroke="#10141f" stroke-width="2.4" stroke-linejoin="round" stroke-linecap="round"/><line x1="25.525" y1="102.5" x2="33.525" y2="102.5" stroke="#dc2626" stroke-width="1.2" opacity="0.8"/><line x1="66.475" y1="102.5" x2="74.475" y2="102.5" stroke="#dc2626" stroke-width="1.2" opacity="0.8"/>
<path d="M2.5 54 q-10 0 -10 12 q0 8 12 8 q2 -12 -2 -20 z" fill="#c2ccdb" stroke="#10141f" stroke-width="2.6999999999999997" stroke-linejoin="round" stroke-linecap="round"/><path d="M97.5 54 q10 0 10 12 q0 8 -12 8 q-2 -12 2 -20 z" fill="#c2ccdb" stroke="#10141f" stroke-width="2.6999999999999997" stroke-linejoin="round" stroke-linecap="round"/><rect x="29.525" y="50" width="40.95" height="22" rx="5" fill="#c2ccdb" stroke="#10141f" stroke-width="2.6" stroke-linejoin="round" stroke-linecap="round"/><rect x="33.620000000000005" y="53" width="32.76" height="16" rx="3" fill="none" stroke="#dc2626" stroke-width="1.8" opacity="0.85"/><path d="M2.5 62 q-6 0 -6 8" fill="none" stroke="#dc2626" stroke-width="2" opacity="0.9"/><path d="M97.5 62 q6 0 6 8" fill="none" stroke="#dc2626" stroke-width="2" opacity="0.9"/><circle cx="34.075" cy="54" r="1.6" fill="#dc2626" opacity="0.9"/><circle cx="34.075" cy="68" r="1.6" fill="#dc2626" opacity="0.9"/><circle cx="65.925" cy="54" r="1.6" fill="#dc2626" opacity="0.9"/><circle cx="65.925" cy="68" r="1.6" fill="#dc2626" opacity="0.9"/>
<path d="M22.0 7.5 L17.0 -10.5 L31.0 -0.5 Z" fill="#1f2937" stroke="#10141f" stroke-width="2.4" stroke-linejoin="round" stroke-linecap="round"/><path d="M78.0 7.5 L83.0 -10.5 L69.0 -0.5 Z" fill="#1f2937" stroke="#10141f" stroke-width="2.4" stroke-linejoin="round" stroke-linecap="round"/><path d="M22.0 2.5 L20.0 -4.5 L26.0 0.5 Z" fill="#ff9eb5"/><path d="M78.0 2.5 L80.0 -4.5 L74.0 0.5 Z" fill="#ff9eb5"/>
<circle cx="50" cy="44.0" r="18.9125" fill="#1f2937" stroke="#10141f" stroke-width="2.4" stroke-linejoin="round" stroke-linecap="round"/>
<circle cx="42.475" cy="42.0" r="4.6" fill="#ffffff" stroke="#10141f" stroke-width="1.7999999999999998" stroke-linejoin="round" stroke-linecap="round"/><circle cx="57.525" cy="42.0" r="4.6" fill="#ffffff" stroke="#10141f" stroke-width="1.7999999999999998" stroke-linejoin="round" stroke-linecap="round"/><circle cx="43.475" cy="43.0" r="2.4" fill="#10141f"/><circle cx="58.525" cy="43.0" r="2.4" fill="#10141f"/><path d="M48 46.0 L52 46.0 L50 48.0 Z" fill="#ff9eb5" stroke="#10141f" stroke-width="0.8"/><path d="M46 50.0 q4 4 8 0" fill="none" stroke="#10141f" stroke-width="1.7999999999999998" stroke-linejoin="round" stroke-linecap="round"/><line x1="39.475" y1="36.0" x2="45.475" y2="39.0" stroke="#10141f" stroke-width="2.0" stroke-linejoin="round" stroke-linecap="round"/><line x1="60.525" y1="36.0" x2="54.525" y2="39.0" stroke="#10141f" stroke-width="2.0" stroke-linejoin="round" stroke-linecap="round"/><path d="M43 47.0 l-8 -1 M43 49.0 l-8 2 M57 47.0 l8 -1 M57 49.0 l8 2" fill="none" stroke="#10141f" stroke-width="0.7" opacity="0.7"/>
<circle cx="50" cy="42.0" r="23.3625" fill="#9fdcff" fill-opacity="0.22" stroke="#e45c5c" stroke-width="2.2" stroke-opacity="0.85"/><path d="M35.9825 32.655 A 18.22275 18.22275 0 0 1 54.6725 23.77725" fill="none" stroke="#ffffff" stroke-width="2.4" opacity="0.75" stroke-linecap="round"/><ellipse cx="50" cy="63.3625" rx="21.02625" ry="4" fill="#c2ccdb" stroke="#10141f" stroke-width="2.0" stroke-linejoin="round" stroke-linecap="round"/><ellipse cx="50" cy="63.3625" rx="18.69" ry="2.2" fill="none" stroke="#dc2626" stroke-width="1.6" opacity="0.9"/>
<path d="M38 5.5 l0 -6 l5 3 l4 -9 l4 9 l5 -3 l0 6 z" fill="#c2ccdb" stroke="#10141f" stroke-width="2.4" stroke-linejoin="round" stroke-linecap="round"/><path d="M38 3.5 l0 -4 l5 2 l4 -7 l4 7 l5 -2 l0 4 z" fill="none" stroke="#dc2626" stroke-width="1.6" opacity="0.95"/><circle cx="50" cy="-3.5" r="2" fill="#dc2626"/>
<path d="M29.0 56.0 q21.0 6 42.0 0" fill="none" stroke="#dc2626" stroke-width="3" stroke-linecap="round"/>
<path d="M85.0 61 L91.0 30 L94.0 30 L99.0 59 Z" fill="#dc2626" opacity="0.35"/><rect x="85.0" y="58" width="14" height="5" rx="2" fill="#c2ccdb" stroke="#10141f" stroke-width="1.7999999999999998" stroke-linejoin="round" stroke-linecap="round"/><path d="M86.0 60 L91.0 32 L93.0 32 L98.0 58 Z" fill="#ed9292" stroke="#dc2626" stroke-width="2.4" stroke-linejoin="round"/>
</svg>