<svg viewBox="0 0 100 100" xmlns="http://www.w3.org/2000/svg">
<line x1="80.0" y1="56.0" x2="96.0" y2="56.0" stroke="#ff8fd0" stroke-width="2.6" stroke-linecap="round" opacity="0.6"/><line x1="76.0" y1="71.0" x2="89.8" y2="79.0" stroke="#ff8fd0" stroke-width="2.6" stroke-linecap="round" opacity="0.6"/><line x1="65.0" y1="82.0" x2="73.0" y2="95.8" stroke="#ff8fd0" stroke-width="2.6" stroke-linecap="round" opacity="0.6"/><line x1="50.0" y1="86.0" x2="50.0" y2="102.0" stroke="#ff8fd0" stroke-width="2.6" stroke-linecap="round" opacity="0.6"/><line x1="35.0" y1="82.0" x2="27.0" y2="95.8" stroke="#ff8fd0" stroke-width="2.6" stroke-linecap="round" opacity="0.6"/><line x1="24.0" y1="71.0" x2="10.2" y2="79.0" stroke="#ff8fd0" stroke-width="2.6" stroke-linecap="round" opacity="0.6"/><line x1="20.0" y1="56.0" x2="4.0" y2="56.0" stroke="#ff8fd0" stroke-width="2.6" stroke-linecap="round" opacity="0.6"/><line x1="24.0" y1="41.0" x2="10.2" y2="33.0" stroke="#ff8fd0" stroke-width="2.6" stroke-linecap="round" opacity="0.6"/><line x1="35.0" y1="30.0" x2="27.0" y2="16.2" stroke="#ff8fd0" stroke-width="2.6" stroke-linecap="round" opacity="0.6"/><line x1="50.0" y1="26.0" x2="50.0" y2="10.0" stroke="#ff8fd0" stroke-width="2.6" stroke-linecap="round" opacity="0.6"/><line x1="65.0" y1="30.0" x2="73.0" y2="16.2" stroke="#ff8fd0" stroke-width="2.6" stroke-linecap="round" opacity="0.6"/><line x1="76.0" y1="41.0" x2="89.8" y2="33.0" stroke="#ff8fd0" stroke-width="2.6" stroke-linecap="round" opacity="0.6"/><circle cx="50" cy="56" r="40.0" fill="#ff8fd0" opacity="0.16"/><circle cx="50" cy="56" r="30.0" fill="#ff8fd0" opacity="0.16"/><circle cx="50" cy="56" r="44.0" fill="none" stroke="#ffb0de" stroke-width="1.4" opacity="0.5"/><path d="M18 23.5 L19.3 26.7 L22.5 28 L19.3 29.3 L18 32.5 L16.7 29.3 L13.5 28 L16.7 26.7 Z" fill="#ffffff" stroke="#ff8fd0" stroke-width="1"/><path d="M84 29.5 L85.3 32.7 L88.5 34 L85.3 35.3 L84 38.5 L82.7 35.3 L79.5 34 L82.7 32.7 Z" fill="#ffffff" stroke="#ff8fd0" stroke-width="1"/><path d="M20 75.5 L21.3 78.7 L24.5 80 L21.3 81.3 L20 84.5 L18.7 81.3 L15.5 80 L18.7 78.7 Z" fill="#ffffff" stroke="#ff8fd0" stroke-width="1"/><path d="M82 71.5 L83.3 74.7 L86.5 76 L83.3 77.3 L82 80.5 L80.7 77.3 L77.5 76 L80.7 74.7 Z" fill="#ffffff" stroke="#ff8fd0" stroke-width="1"/><path d="M50 11.5 L51.3 14.7 L54.5 16 L51.3 17.3 L50 20.5 L48.7 17.3 L45.5 16 L48.7 14.7 Z" fill="#ffffff" stroke="#ff8fd0" stroke-width="1"/>
<rect x="18.36" y="48" width="10" height="24" rx="4" fill="#c2ccdb" stroke="#10141f" stroke-width="2.0" stroke-linejoin="round" stroke-linecap="round"/><rect x="20.36" y="51" width="6" height="18" rx="2" fill="none" stroke="#ff8fd0" stroke-width="1.6" opacity="0.9"/><ellipse cx="23.36" cy="75" rx="4" ry="7" fill="#ff8fd0" opacity="0.55"/><ellipse cx="23.36" cy="73" rx="2" ry="4" fill="#ffffff" opacity="0.8"/><ellipse cx="23.36" cy="79" rx="5.5" ry="9" fill="#ff8fd0" opacity="0.3"/>
<path d="M70 74 q18 0 16 -14 q-1 -8 -7 -6 q4 4 1 9 q-3 5 -12 5 z" fill="#ffe6ef" stroke="#10141f" stroke-width="2.4" stroke-linejoin="round" stroke-linecap="round"/>
<path d="M20.879999999999995 60 C20.879999999999995 26.4, 35.44 20.4, 50 20.4 C64.56 20.4, 79.12 26.4, 79.12 60 C79.12 84.64, 67.47200000000001 90.64, 50 90.64 C32.528 90.64, 20.879999999999995 84.64, 20.879999999999995 60 Z" fill="#e8edf5" stroke="#10141f" stroke-width="2.6999999999999997" stroke-linejoin="round" stroke-linecap="round"/><path d="M29.616 30.4 C41.263999999999996 22.4, 58.736000000000004 22.4, 70.384 30.4" fill="none" stroke="#ffffff" stroke-width="2" opacity="0.5"/><ellipse cx="50" cy="62" rx="15.142400000000002" ry="15.680000000000001" fill="none" stroke="#ff8fd0" stroke-width="2" opacity="0.85"/><path d="M50 24.4 L50 56 M33.983999999999995 60 q16.016000000000005 8 32.03200000000001 0" fill="none" stroke="#ff8fd0" stroke-width="1.4" opacity="0.7"/><circle cx="50" cy="62" r="4.5" fill="#ff8fd0" opacity="0.9"/><circle cx="50" cy="62" r="2" fill="#ffffff" opacity="0.85"/>
<ellipse cx="36.896" cy="88.64" rx="6.5" ry="4.2" fill="#c2ccdb" stroke="#10141f" stroke-width="2.4" stroke-linejoin="round" stroke-linecap="round"/><ellipse cx="63.104" cy="88.64" rx="6.5" ry="4.2" fill="#c2ccdb" stroke="#10141f" stroke-width="2.4" stroke-linejoin="round" stroke-linecap="round"/><line x1="32.896" y1="88.64" x2="40.896" y2="88.64" stroke="#ff8fd0" stroke-width="1.2" opacity="0.8"/><line x1="59.104" y1="88.64" x2="67.104" y2="88.64" stroke="#ff8fd0" stroke-width="1.2" opacity="0.8"/>
<circle cx="32.08" cy="18.4" r="8" fill="#ffe6ef" stroke="#10141f" stroke-width="2.4" stroke-linejoin="round" stroke-linecap="round"/><circle cx="67.92" cy="18.4" r="8" fill="#ffe6ef" stroke="#10141f" stroke-width="2.4" stroke-linejoin="round" stroke-linecap="round"/><path d="M32.08 21.4 L30.08 14.399999999999999 L36.08 19.4 Z" fill="#ff9eb5"/><path d="M67.92 21.4 L69.92 14.399999999999999 L63.92 19.4 Z" fill="#ff9eb5"/>
<circle cx="50" cy="49.04" r="17.306" fill="#ffe6ef" stroke="#10141f" stroke-width="2.4" stroke-linejoin="round" stroke-linecap="round"/>
<circle cx="42.916" cy="47.04" r="5.2" fill="#ffffff" stroke="#10141f" stroke-width="1.7999999999999998" stroke-linejoin="round" stroke-linecap="round"/><circle cx="57.084" cy="47.04" r="5.2" fill="#ffffff" stroke="#10141f" stroke-width="1.7999999999999998" stroke-linejoin="round" stroke-linecap="round"/><circle cx="42.916" cy="47.54" r="2.4" fill="#10141f"/><circle cx="57.084" cy="47.54" r="2.4" fill="#10141f"/><path d="M48 51.04 L52 51.04 L50 53.04 Z" fill="#ff9eb5" stroke="#10141f" stroke-width="0.8"/><path d="M47 55.04 q3 2 6 0" fill="none" stroke="#10141f" stroke-width="1.7999999999999998" stroke-linejoin="round" stroke-linecap="round"/><path d="M43 52.04 l-8 -1 M43 54.04 l-8 2 M57 52.04 l8 -1 M57 54.04 l8 2" fill="none" stroke="#10141f" stroke-width="0.7" opacity="0.7"/>
<circle cx="50" cy="47.04" r="21.378" fill="#9fdcff" fill-opacity="0.22" stroke="#ffabdb" stroke-width="2.2" stroke-opacity="0.85"/><path d="M37.1732 38.4888 A 16.67484 16.67484 0 0 1 54.2756 30.36516" fill="none" stroke="#ffffff" stroke-width="2.4" opacity="0.75" stroke-linecap="round"/><ellipse cx="50" cy="66.418" rx="19.2402" ry="4" fill="#c2ccdb" stroke="#10141f" stroke-width="2.0" stroke-linejoin="round" stroke-linecap="round"/><ellipse cx="50" cy="66.418" rx="17.1024" ry="2.2" fill="none" stroke="#ff8fd0" stroke-width="1.6" opacity="0.9"/>
<ellipse cx="50" cy="11.399999999999999" rx="14" ry="4.5" fill="none" stroke="#ff8fd0" stroke-width="3"/><ellipse cx="50" cy="11.399999999999999" rx="14" ry="4.5" fill="none" stroke="#ffbbe2" stroke-width="1" opacity="0.6"/><circle cx="63" cy="11.399999999999999" r="2" fill="#ff8fd0"/>
<path d="M36.56 61.04 q13.440000000000001 6 26.880000000000003 0" fill="none" stroke="#ff8fd0" stroke-width="3" stroke-linecap="round"/>
<circle cx="82.88" cy="52" r="11" fill="#ffffff" opacity="0.35"/><ellipse cx="82.88" cy="52" rx="11" ry="4.5" fill="none" stroke="#ff8fd0" stroke-width="3"/><circle cx="82.88" cy="52" r="4" fill="#ffc7e7" stroke="#10141f" stroke-width="1.4" stroke-linejoin="round" stroke-linecap="round"/><circle cx="82.88" cy="52" r="1.6" fill="#ff8fd0"/>
</svg>