<svg viewBox="0 0 100 100" xmlns="http://www.w3.org/2000/svg">
<line x1="80.0" y1="56.0" x2="96.0" y2="56.0" stroke="#d99a4e" stroke-width="2.6" stroke-linecap="round" opacity="0.6"/><line x1="76.0" y1="71.0" x2="89.8" y2="79.0" stroke="#d99a4e" stroke-width="2.6" stroke-linecap="round" opacity="0.6"/><line x1="65.0" y1="82.0" x2="73.0" y2="95.8" stroke="#d99a4e" stroke-width="2.6" stroke-linecap="round" opacity="0.6"/><line x1="50.0" y1="86.0" x2="50.0" y2="102.0" stroke="#d99a4e" stroke-width="2.6" stroke-linecap="round" opacity="0.6"/><line x1="35.0" y1="82.0" x2="27.0" y2="95.8" stroke="#d99a4e" stroke-width="2.6" stroke-linecap="round" opacity="0.6"/><line x1="24.0" y1="71.0" x2="10.2" y2="79.0" stroke="#d99a4e" stroke-width="2.6" stroke-linecap="round" opacity="0.6"/><line x1="20.0" y1="56.0" x2="4.0" y2="56.0" stroke="#d99a4e" stroke-width="2.6" stroke-linecap="round" opacity="0.6"/><line x1="24.0" y1="41.0" x2="10.2" y2="33.0" stroke="#d99a4e" stroke-width="2.6" stroke-linecap="round" opacity="0.6"/><line x1="35.0" y1="30.0" x2="27.0" y2="16.2" stroke="#d99a4e" stroke-width="2.6" stroke-linecap="round" opacity="0.6"/><line x1="50.0" y1="26.0" x2="50.0" y2="10.0" stroke="#d99a4e" stroke-width="2.6" stroke-linecap="round" opacity="0.6"/><line x1="65.0" y1="30.0" x2="73.0" y2="16.2" stroke="#d99a4e" stroke-width="2.6" stroke-linecap="round" opacity="0.6"/><line x1="76.0" y1="41.0" x2="89.8" y2="33.0" stroke="#d99a4e" stroke-width="2.6" stroke-linecap="round" opacity="0.6"/><circle cx="50" cy="56" r="40.0" fill="#d99a4e" opacity="0.16"/><circle cx="50" cy="56" r="30.0" fill="#d99a4e" opacity="0.16"/><circle cx="50" cy="56" r="44.0" fill="none" stroke="#e4b883" stroke-width="1.4" opacity="0.5"/><path d="M18 23.5 L19.3 26.7 L22.5 28 L19.3 29.3 L18 32.5 L16.7 29.3 L13.5 28 L16.7 26.7 Z" fill="#ffffff" stroke="#d99a4e" stroke-width="1"/><path d="M84 29.5 L85.3 32.7 L88.5 34 L85.3 35.3 L84 38.5 L82.7 35.3 L79.5 34 L82.7 32.7 Z" fill="#ffffff" stroke="#d99a4e" stroke-width="1"/><path d="M20 75.5 L21.3 78.7 L24.5 80 L21.3 81.3 L20 84.5 L18.7 81.3 L15.5 80 L18.7 78.7 Z" fill="#ffffff" stroke="#d99a4e" stroke-width="1"/><path d="M82 71.5 L83.3 74.7 L86.5 76 L83.3 77.3 L82 80.5 L80.7 77.3 L77.5 76 L80.7 74.7 Z" fill="#ffffff" stroke="#d99a4e" stroke-width="1"/><path d="M50 11.5 L51.3 14.7 L54.5 16 L51.3 17.3 L50 20.5 L48.7 17.3 L45.5 16 L48.7 14.7 Z" fill="#ffffff" stroke="#d99a4e" stroke-width="1"/>
<rect x="5.600000000000001" y="48" width="10" height="24" rx="4" fill="#c2ccdb" stroke="#10141f" stroke-width="2.0" stroke-linejoin="round" stroke-linecap="round"/><rect x="7.600000000000001" y="51" width="6" height="18" rx="2" fill="none" stroke="#d99a4e" stroke-width="1.6" opacity="0.9"/><ellipse cx="10.600000000000001" cy="75" rx="4" ry="7" fill="#d99a4e" opacity="0.55"/><ellipse cx="10.600000000000001" cy="73" rx="2" ry="4" fill="#ffffff" opacity="0.8"/><ellipse cx="10.600000000000001" cy="79" rx="5.5" ry="9" fill="#d99a4e" opacity="0.3"/>
<path d="M70 74 q18 0 16 -14 q-1 -8 -7 -6 q4 4 1 9 q-3 5 -12 5 z" fill="#efe0cf" stroke="#10141f" stroke-width="2.4" stroke-linejoin="round" stroke-linecap="round"/>
<path d="M5.800000000000004 60 C5.800000000000004 9.0, 27.900000000000002 3.0, 50 3.0 C72.1 3.0, 94.19999999999999 9.0, 94.19999999999999 60 C94.19999999999999 97.4, 76.52 103.4, 50 103.4 C23.480000000000004 103.4, 5.800000000000004 97.4, 5.800000000000004 60 Z" fill="#e8edf5" stroke="#10141f" stroke-width="2.6999999999999997" stroke-linejoin="round" stroke-linecap="round"/><path d="M19.060000000000006 13.0 C36.74 5.0, 63.26 5.0, 80.94 13.0" fill="none" stroke="#ffffff" stroke-width="2" opacity="0.5"/><ellipse cx="50" cy="62" rx="22.983999999999998" ry="23.8" fill="none" stroke="#d99a4e" stroke-width="2" opacity="0.85"/><path d="M50 7.0 L50 56 M25.69 60 q24.31 8 48.62 0" fill="none" stroke="#d99a4e" stroke-width="1.4" opacity="0.7"/><circle cx="50" cy="62" r="4.5" fill="#d99a4e" opacity="0.9"/><circle cx="50" cy="62" r="2" fill="#ffffff" opacity="0.85"/>
<ellipse cx="30.110000000000003" cy="101.4" rx="6.5" ry="4.2" fill="#c2ccdb" stroke="#10141f" stroke-width="2.4" stroke-linejoin="round" stroke-linecap="round"/><ellipse cx="69.89" cy="101.4" rx="6.5" ry="4.2" fill="#c2ccdb" stroke="#10141f" stroke-width="2.4" stroke-linejoin="round" stroke-linecap="round"/><line x1="26.110000000000003" y1="101.4" x2="34.11" y2="101.4" stroke="#d99a4e" stroke-width="1.2" opacity="0.8"/><line x1="65.89" y1="101.4" x2="73.89" y2="101.4" stroke="#d99a4e" stroke-width="1.2" opacity="0.8"/>
<circle cx="22.8" cy="1.0" r="8" fill="#efe0cf" stroke="#10141f" stroke-width="2.4" stroke-linejoin="round" stroke-linecap="round"/><circle cx="77.2" cy="1.0" r="8" fill="#efe0cf" stroke="#10141f" stroke-width="2.4" stroke-linejoin="round" stroke-linecap="round"/><path d="M22.8 4.0 L20.8 -3.0 L26.8 2.0 Z" fill="#ff9eb5"/><path d="M77.2 4.0 L79.2 -3.0 L73.2 2.0 Z" fill="#ff9eb5"/>
<circle cx="50" cy="44.4" r="18.785" fill="#efe0cf" stroke="#10141f" stroke-width="2.4" stroke-linejoin="round" stroke-linecap="round"/>
<circle cx="42.51" cy="42.4" r="5.2" fill="#ffffff" stroke="#10141f" stroke-width="1.7999999999999998" stroke-linejoin="round" stroke-linecap="round"/><circle cx="57.49" cy="42.4" r="5.2" fill="#ffffff" stroke="#10141f" stroke-width="1.7999999999999998" stroke-linejoin="round" stroke-linecap="round"/><circle cx="43.51" cy="43.4" r="2.4" fill="#10141f"/><circle cx="58.49" cy="43.4" r="2.4" fill="#10141f"/><path d="M48 46.4 L52 46.4 L50 48.4 Z" fill="#ff9eb5" stroke="#10141f" stroke-width="0.8"/><path d="M46 50.4 q4 4 8 0" fill="none" stroke="#10141f" stroke-width="1.7999999999999998" stroke-linejoin="round" stroke-linecap="round"/><line x1="39.51" y1="36.4" x2="45.51" y2="39.4" stroke="#10141f" stroke-width="2.0" stroke-linejoin="round" stroke-linecap="round"/><line x1="60.49" y1="36.4" x2="54.49" y2="39.4" stroke="#10141f" stroke-width="2.0" stroke-linejoin="round" stroke-linecap="round"/><path d="M43 47.4 l-8 -1 M43 49.4 l-8 2 M57 47.4 l8 -1 M57 49.4 l8 2" fill="none" stroke="#10141f" stroke-width="0.7" opacity="0.7"/>
<circle cx="50" cy="42.4" r="23.205" fill="#9fdcff" fill-opacity="0.22" stroke="#e2b37a" stroke-width="2.2" stroke-opacity="0.85"/><path d="M36.077 33.117999999999995 A 18.099899999999998 18.099899999999998 0 0 1 54.641 24.3001" fill="none" stroke="#ffffff" stroke-width="2.4" opacity="0.75" stroke-linecap="round"/><ellipse cx="50" cy="63.60499999999999" rx="20.8845" ry="4" fill="#c2ccdb" stroke="#10141f" stroke-width="2.0" stroke-linejoin="round" stroke-linecap="round"/><ellipse cx="50" cy="63.60499999999999" rx="18.564" ry="2.2" fill="none" stroke="#d99a4e" stroke-width="1.6" opacity="0.9"/>
<path d="M38 7.0 l0 -6 l5 3 l4 -9 l4 9 l5 -3 l0 6 z" fill="#c2ccdb" stroke="#10141f" stroke-width="2.4" stroke-linejoin="round" stroke-linecap="round"/><path d="M38 5.0 l0 -4 l5 2 l4 -7 l4 7 l5 -2 l0 4 z" fill="none" stroke="#d99a4e" stroke-width="1.6" opacity="0.95"/><circle cx="50" cy="-2.0" r="2" fill="#d99a4e"/>
<path d="M29.6 56.4 q20.4 6 40.8 0" fill="none" stroke="#d99a4e" stroke-width="3" stroke-linecap="round"/>
<circle cx="92.0" cy="40" r="13" fill="#d99a4e" opacity="0.4"/><rect x="86.0" y="58" width="5" height="24" rx="2" fill="#c2ccdb" stroke="#10141f" stroke-width="2.0" stroke-linejoin="round" stroke-linecap="round" transform="rotate(-16 86.0 60)"/><rect x="80.0" y="32" width="24" height="16" rx="4" fill="#c2ccdb" stroke="#10141f" stroke-width="2.4" stroke-linejoin="round" stroke-linecap="round"/><rect x="84.0" y="36" width="16" height="8" rx="2" fill="#d99a4e" opacity="0.85"/>
</svg>